# xmcd CD database file
#
# Track frame offsets:
#	150
#	13226
#	25977
#	40621
#	54563
#	68076
#	82382
#	98620
#	111692
#	126311
#	140814
#	154788
#	168574
#	181159
#	209776
#	224124
#	241282
#	252954
#	268892
#	283225
#	298192
#	311451
#	325357
#
# Disc length: 4725 seconds
#
# Revision: 0
# Processed by: cddbd v1.5.2PL0 Copyright (c) Steve Scherf et al.
# Submitted via: CDex 1.51
#
DISCID=7b127317
DTITLE=Johnny Hodges  - Four Classic Album (Castle Rock, Creamy, In a Mellow Tone, Perdido), CD 1
DYEAR=2010
DGENRE=Jazz
TTITLE0=Castle Rock
TTITLE1=The Jeep Is Jumping
TTITLE2=A Gentle Breeze
TTITLE3=Globe Trotter
TTITLE4=Jeep´s Blues
TTITLE5=A Pound Of Blues
TTITLE6=You Blew Out The Flame In My Heart
TTITLE7=Something to Pat Your Foot To
TTITLE8=Blue Fantasia
TTITLE9=My Rewards
TTITLE10=Sideways
TTITLE11=Wham
TTITLE12=The Jeep Is Jumping (alternate take)
TTITLE13=In A Mellow Tone
TTITLE14=I Let A Song Go Out Of My Heart
TTITLE15=Don´t Get Around Much Anymore
TTITLE16=Come Sunday
TTITLE17=I Got It Bad And That Ain´t Good
TTITLE18=Sophisticated Lady
TTITLE19=Day Dream
TTITLE20=Solitude
TTITLE21=Good Queen Bess
TTITLE22=Perdido
EXTD=YEAR: 2010
EXTT0=
EXTT1=
EXTT2=
EXTT3=
EXTT4=
EXTT5=
EXTT6=
EXTT7=
EXTT8=
EXTT9=
EXTT10=
EXTT11=
EXTT12=
EXTT13=
EXTT14=
EXTT15=
EXTT16=
EXTT17=
EXTT18=
EXTT19=
EXTT20=
EXTT21=
EXTT22=
PLAYORDER=
